<svg width="219" height="49" viewBox="0 0 219 49" fill="none" xmlns="http://www.w3.org/2000/svg">
<path d="M97.1226 25.0061C97.1226 26.5732 96.8696 27.9991 96.3634 29.2839C95.867 30.5687 95.1614 31.6734 94.2464 32.5981C93.3315 33.513 92.2365 34.2236 90.9614 34.7297C89.6864 35.2358 88.2702 35.4889 86.7128 35.4889H78.8288V14.5233H86.7128C88.2702 14.5233 89.6864 14.7764 90.9614 15.2825C92.2365 15.7886 93.3315 16.504 94.2464 17.4287C95.1614 18.3436 95.867 19.4484 96.3634 20.7429C96.8696 22.0277 97.1226 23.4488 97.1226 25.0061ZM93.9398 25.0061C93.9398 23.7602 93.7695 22.6458 93.4288 21.6627C93.0882 20.6699 92.6015 19.8328 91.9688 19.1515C91.3459 18.4604 90.5867 17.9348 89.6912 17.5747C88.8055 17.2146 87.8127 17.0345 86.7128 17.0345H81.9532V32.9777H86.7128C87.8127 32.9777 88.8055 32.7976 89.6912 32.4375C90.5867 32.0774 91.3459 31.5566 91.9688 30.8753C92.6015 30.1842 93.0882 29.3472 93.4288 28.3641C93.7695 27.381 93.9398 26.2617 93.9398 25.0061ZM108.059 28.9043C106.901 28.9432 105.918 29.0357 105.11 29.1817C104.302 29.318 103.645 29.5029 103.139 29.7365C102.633 29.9701 102.268 30.2475 102.044 30.5687C101.82 30.8802 101.708 31.2306 101.708 31.6199C101.708 31.9898 101.767 32.311 101.884 32.5835C102.01 32.8463 102.176 33.0653 102.38 33.2405C102.594 33.406 102.842 33.5276 103.125 33.6055C103.407 33.6834 103.713 33.7223 104.044 33.7223C104.482 33.7223 104.881 33.6785 105.242 33.5909C105.611 33.5033 105.957 33.3816 106.278 33.2259C106.599 33.0604 106.906 32.8609 107.198 32.6273C107.49 32.3937 107.777 32.126 108.059 31.8243V28.9043ZM99.7082 22.7285C100.536 21.9401 101.431 21.3512 102.395 20.9619C103.368 20.5726 104.434 20.3779 105.592 20.3779C106.439 20.3779 107.188 20.519 107.84 20.8013C108.493 21.0738 109.042 21.4583 109.49 21.9547C109.938 22.4511 110.274 23.0448 110.498 23.7359C110.731 24.427 110.848 25.191 110.848 26.0281V35.4889H109.578C109.296 35.4889 109.081 35.4451 108.935 35.3575C108.789 35.2602 108.673 35.085 108.585 34.8319L108.278 33.5325C107.899 33.8829 107.524 34.1944 107.154 34.4669C106.784 34.7297 106.395 34.9584 105.986 35.1531C105.587 35.338 105.159 35.4792 104.701 35.5765C104.244 35.6738 103.738 35.7225 103.183 35.7225C102.599 35.7225 102.049 35.6446 101.533 35.4889C101.027 35.3234 100.584 35.0752 100.205 34.7443C99.825 34.4134 99.5233 33.9997 99.2994 33.5033C99.0853 33.0069 98.9782 32.4278 98.9782 31.7659C98.9782 31.1819 99.1339 30.6222 99.4454 30.0869C99.7666 29.5418 100.282 29.0552 100.993 28.6269C101.713 28.1986 102.648 27.8482 103.796 27.5757C104.954 27.3032 106.376 27.1474 108.059 27.1085V26.0281C108.059 24.9088 107.821 24.0717 107.344 23.5169C106.867 22.9621 106.166 22.6847 105.242 22.6847C104.619 22.6847 104.093 22.7626 103.665 22.9183C103.246 23.074 102.881 23.2492 102.57 23.4439C102.268 23.6288 102 23.7992 101.767 23.9549C101.543 24.1106 101.309 24.1885 101.066 24.1885C100.871 24.1885 100.701 24.135 100.555 24.0279C100.419 23.9208 100.307 23.7943 100.219 23.6483L99.7082 22.7285ZM119.102 35.7225C117.905 35.7225 116.981 35.3867 116.328 34.7151C115.686 34.0435 115.365 33.0848 115.365 31.8389V22.9621H113.642C113.477 22.9621 113.335 22.9134 113.219 22.8161C113.112 22.709 113.058 22.5533 113.058 22.3489V21.1955L115.467 20.8597L116.109 16.4359C116.148 16.2704 116.221 16.1439 116.328 16.0563C116.445 15.959 116.591 15.9103 116.766 15.9103H118.212V20.8889H122.417V22.9621H118.212V31.6491C118.212 32.2331 118.353 32.6711 118.635 32.9631C118.927 33.2454 119.297 33.3865 119.745 33.3865C120.008 33.3865 120.232 33.3524 120.416 33.2843C120.611 33.2162 120.777 33.1432 120.913 33.0653C121.049 32.9777 121.166 32.8998 121.263 32.8317C121.361 32.7636 121.448 32.7295 121.526 32.7295C121.623 32.7295 121.696 32.7538 121.745 32.8025C121.803 32.8414 121.862 32.9096 121.92 33.0069L122.767 34.3793C122.3 34.8076 121.745 35.1385 121.103 35.3721C120.46 35.6057 119.794 35.7225 119.102 35.7225ZM133.011 28.9043C131.852 28.9432 130.869 29.0357 130.061 29.1817C129.254 29.318 128.597 29.5029 128.09 29.7365C127.584 29.9701 127.219 30.2475 126.995 30.5687C126.772 30.8802 126.66 31.2306 126.66 31.6199C126.66 31.9898 126.718 32.311 126.835 32.5835C126.961 32.8463 127.127 33.0653 127.331 33.2405C127.545 33.406 127.794 33.5276 128.076 33.6055C128.358 33.6834 128.665 33.7223 128.996 33.7223C129.434 33.7223 129.833 33.6785 130.193 33.5909C130.563 33.5033 130.908 33.3816 131.229 33.2259C131.551 33.0604 131.857 32.8609 132.149 32.6273C132.441 32.3937 132.728 32.126 133.011 31.8243V28.9043ZM124.659 22.7285C125.487 21.9401 126.382 21.3512 127.346 20.9619C128.319 20.5726 129.385 20.3779 130.543 20.3779C131.39 20.3779 132.139 20.519 132.792 20.8013C133.444 21.0738 133.994 21.4583 134.441 21.9547C134.889 22.4511 135.225 23.0448 135.449 23.7359C135.682 24.427 135.799 25.191 135.799 26.0281V35.4889H134.529C134.247 35.4889 134.033 35.4451 133.887 35.3575C133.741 35.2602 133.624 35.085 133.536 34.8319L133.23 33.5325C132.85 33.8829 132.475 34.1944 132.105 34.4669C131.736 34.7297 131.346 34.9584 130.937 35.1531C130.538 35.338 130.11 35.4792 129.653 35.5765C129.195 35.6738 128.689 35.7225 128.134 35.7225C127.55 35.7225 127 35.6446 126.484 35.4889C125.978 35.3234 125.535 35.0752 125.156 34.7443C124.776 34.4134 124.474 33.9997 124.251 33.5033C124.036 33.0069 123.929 32.4278 123.929 31.7659C123.929 31.1819 124.085 30.6222 124.397 30.0869C124.718 29.5418 125.234 29.0552 125.944 28.6269C126.664 28.1986 127.599 27.8482 128.747 27.5757C129.906 27.3032 131.327 27.1474 133.011 27.1085V26.0281C133.011 24.9088 132.772 24.0717 132.295 23.5169C131.818 22.9621 131.117 22.6847 130.193 22.6847C129.57 22.6847 129.044 22.7626 128.616 22.9183C128.197 23.074 127.832 23.2492 127.521 23.4439C127.219 23.6288 126.952 23.7992 126.718 23.9549C126.494 24.1106 126.261 24.1885 126.017 24.1885C125.823 24.1885 125.652 24.135 125.506 24.0279C125.37 23.9208 125.258 23.7943 125.17 23.6483L124.659 22.7285ZM140.37 35.4889V23.3271L139.202 23.1227C138.9 23.0643 138.652 22.9572 138.457 22.8015C138.272 22.6458 138.18 22.4219 138.18 22.1299V20.5239H140.37V20.1589C140.37 19.244 140.521 18.3923 140.822 17.6039C141.134 16.8058 141.606 16.1147 142.238 15.5307C142.881 14.937 143.689 14.4746 144.662 14.1437C145.645 13.803 146.808 13.6327 148.151 13.6327C148.57 13.6327 149.003 13.657 149.451 13.7057C149.899 13.7446 150.283 13.8079 150.604 13.8955L150.473 15.9541C150.463 16.0709 150.424 16.1634 150.356 16.2315C150.298 16.2996 150.215 16.3532 150.108 16.3921C150.001 16.431 149.879 16.4554 149.743 16.4651C149.616 16.4748 149.48 16.4797 149.334 16.4797C148.361 16.4797 147.548 16.5624 146.896 16.7279C146.244 16.8836 145.723 17.1221 145.334 17.4433C144.944 17.7645 144.667 18.1636 144.501 18.6405C144.346 19.1174 144.268 19.6674 144.268 20.2903V20.5239H153.699V35.4889H149.67V23.3271H144.399V35.4889H140.37ZM160.892 22.1883C161.193 21.8963 161.505 21.6286 161.826 21.3853C162.157 21.142 162.502 20.9327 162.863 20.7575C163.232 20.5823 163.627 20.446 164.045 20.3487C164.473 20.2514 164.936 20.2027 165.432 20.2027C166.25 20.2027 166.975 20.3438 167.608 20.6261C168.24 20.9084 168.771 21.3026 169.199 21.8087C169.637 22.3148 169.963 22.9183 170.177 23.6191C170.401 24.3199 170.513 25.0888 170.513 25.9259V35.4889H166.498V25.9259C166.498 25.0888 166.303 24.4416 165.914 23.9841C165.525 23.5169 164.95 23.2833 164.191 23.2833C163.627 23.2833 163.096 23.405 162.6 23.6483C162.103 23.8916 161.631 24.2323 161.184 24.6703V35.4889H157.154V20.4363H159.636C160.142 20.4363 160.478 20.6699 160.643 21.1371L160.892 22.1883ZM183.022 24.3491C182.642 23.9111 182.228 23.6045 181.781 23.4293C181.343 23.2541 180.876 23.1665 180.379 23.1665C179.892 23.1665 179.45 23.259 179.051 23.4439C178.651 23.6288 178.306 23.9208 178.014 24.3199C177.732 24.7092 177.513 25.2105 177.357 25.8237C177.201 26.4369 177.123 27.1669 177.123 28.0137C177.123 28.8508 177.187 29.5613 177.313 30.1453C177.44 30.7293 177.62 31.2014 177.853 31.5615C178.097 31.9216 178.389 32.1844 178.729 32.3499C179.07 32.5056 179.45 32.5835 179.868 32.5835C180.579 32.5835 181.172 32.4424 181.649 32.1601C182.136 31.8778 182.593 31.4788 183.022 30.9629V24.3491ZM187.051 13.7203V35.4889H184.569C184.053 35.4889 183.723 35.2553 183.577 34.7881L183.241 33.4741C182.939 33.805 182.618 34.1068 182.277 34.3793C181.946 34.6518 181.586 34.8903 181.197 35.0947C180.807 35.2894 180.389 35.4402 179.941 35.5473C179.493 35.6544 179.007 35.7079 178.481 35.7079C177.673 35.7079 176.934 35.5376 176.262 35.1969C175.59 34.8562 175.006 34.3598 174.51 33.7077C174.023 33.0458 173.644 32.238 173.371 31.2841C173.099 30.3302 172.962 29.2401 172.962 28.0137C172.962 26.8944 173.113 25.8529 173.415 24.8893C173.726 23.9257 174.164 23.0935 174.729 22.3927C175.293 21.6919 175.975 21.142 176.773 20.7429C177.571 20.3438 178.457 20.1443 179.43 20.1443C180.248 20.1443 180.934 20.266 181.489 20.5093C182.053 20.7526 182.564 21.0836 183.022 21.5021V13.7203H187.051ZM199.952 26.1887C199.952 25.7702 199.893 25.3711 199.776 24.9915C199.669 24.6119 199.494 24.2761 199.251 23.9841C199.007 23.6921 198.701 23.4634 198.331 23.2979C197.961 23.1227 197.518 23.0351 197.002 23.0351C196.039 23.0351 195.284 23.3076 194.739 23.8527C194.194 24.3978 193.839 25.1764 193.674 26.1887H199.952ZM193.615 28.5831C193.742 29.9944 194.141 31.0262 194.812 31.6783C195.494 32.3304 196.379 32.6565 197.47 32.6565C198.024 32.6565 198.501 32.5932 198.9 32.4667C199.309 32.3304 199.664 32.1844 199.966 32.0287C200.278 31.8632 200.555 31.7172 200.798 31.5907C201.051 31.4544 201.3 31.3863 201.543 31.3863C201.854 31.3863 202.098 31.5031 202.273 31.7367L203.441 33.1967C203.013 33.6931 202.541 34.1068 202.025 34.4377C201.509 34.7589 200.974 35.0168 200.419 35.2115C199.864 35.3964 199.304 35.523 198.74 35.5911C198.175 35.669 197.63 35.7079 197.105 35.7079C196.053 35.7079 195.07 35.5376 194.155 35.1969C193.25 34.8465 192.457 34.3355 191.776 33.6639C191.104 32.9826 190.573 32.1406 190.184 31.1381C189.795 30.1356 189.6 28.9724 189.6 27.6487C189.6 26.6267 189.766 25.6631 190.097 24.7579C190.437 23.8527 190.924 23.0643 191.557 22.3927C192.189 21.7211 192.958 21.1906 193.863 20.8013C194.769 20.4022 195.791 20.2027 196.929 20.2027C197.893 20.2027 198.779 20.3584 199.587 20.6699C200.404 20.9716 201.105 21.4145 201.689 21.9985C202.283 22.5825 202.74 23.3028 203.061 24.1593C203.392 25.0061 203.558 25.9746 203.558 27.0647C203.558 27.3664 203.543 27.6146 203.514 27.8093C203.485 28.004 203.436 28.1597 203.368 28.2765C203.3 28.3933 203.207 28.476 203.091 28.5247C202.974 28.5636 202.823 28.5831 202.638 28.5831H193.615ZM209.84 22.9183C210.317 22.0618 210.867 21.3853 211.489 20.8889C212.112 20.3925 212.842 20.1443 213.679 20.1443C214.361 20.1443 214.916 20.3049 215.344 20.6261L215.081 23.6045C215.032 23.7992 214.955 23.9354 214.847 24.0133C214.75 24.0814 214.614 24.1155 214.439 24.1155C214.283 24.1155 214.059 24.096 213.767 24.0571C213.475 24.0084 213.203 23.9841 212.949 23.9841C212.58 23.9841 212.249 24.0376 211.957 24.1447C211.674 24.2518 211.421 24.4026 211.197 24.5973C210.974 24.792 210.769 25.0304 210.584 25.3127C210.409 25.595 210.244 25.9162 210.088 26.2763V35.4889H206.058V20.4363H208.438C208.847 20.4363 209.129 20.5093 209.285 20.6553C209.441 20.8013 209.553 21.0544 209.621 21.4145L209.84 22.9183Z" fill="white"/>
<path fill-rule="evenodd" clip-rule="evenodd" d="M17.0333 23.5222H4.05555C1.81573 23.5222 0 25.3379 0 27.5778V44.6111C0 46.8509 1.81573 48.6667 4.05555 48.6667H21.0833C20.1723 48.6654 19.3316 48.3638 18.6552 47.8555H4.05555C2.2637 47.8555 0.811111 46.403 0.811111 44.6111V27.5778C0.811111 25.7859 2.2637 24.3333 4.05555 24.3333H17.0333V23.5222Z" fill="white"/>
<path fill-rule="evenodd" clip-rule="evenodd" d="M17.0332 4.05556C17.0332 1.81574 18.8489 0 21.0888 0H61.6443C63.8841 0 65.6999 1.81573 65.6999 4.05556V44.6111C65.6999 46.8509 63.8841 48.6667 61.6443 48.6667H21.0888C20.9519 48.6667 20.8166 48.6599 20.6832 48.6466C22.7326 48.4432 24.3332 46.7141 24.3332 44.6111V28.3889C24.3332 26.1491 22.5175 24.3333 20.2777 24.3333H17.0332V4.05556ZM54.8115 30.5043C55.5123 28.7653 55.8627 26.864 55.8627 24.8006C55.8627 22.7501 55.5123 20.8618 54.8115 19.1358C54.1237 17.4097 53.1439 15.9238 51.8721 14.6779C50.6132 13.419 49.0948 12.4392 47.3169 11.7384C45.5389 11.0376 43.5663 10.6872 41.399 10.6872H30.5366V38.9334H41.399C43.5663 38.9334 45.5389 38.583 47.3169 37.8822C49.0948 37.1814 50.6132 36.208 51.8721 34.9622C53.1439 33.7163 54.1237 32.2303 54.8115 30.5043ZM49.283 20.8099C49.6723 21.9909 49.867 23.3211 49.867 24.8006C49.867 26.293 49.6723 27.6297 49.283 28.8107C48.8937 29.9917 48.3356 30.9974 47.6089 31.828C46.8821 32.6456 45.9931 33.275 44.9419 33.7163C43.9037 34.1446 42.7227 34.3587 41.399 34.3587H36.4155V15.2619H41.399C42.7227 15.2619 43.9037 15.4825 44.9419 15.9238C45.9931 16.365 46.8821 16.9944 47.6089 17.812C48.3356 18.6296 48.8937 19.6289 49.283 20.8099Z" fill="white"/>
</svg>
