<svg width="224" height="224" viewBox="0 0 224 224" fill="none" xmlns="http://www.w3.org/2000/svg">
<path d="M189.007 63H35.0068C31.1408 63 28.0068 66.134 28.0068 70V182C28.0068 185.866 31.1408 189 35.0068 189H189.007C192.873 189 196.007 185.866 196.007 182V70C196.007 66.134 192.873 63 189.007 63Z" stroke="black" stroke-opacity="0.1" stroke-width="2" stroke-linecap="round" stroke-linejoin="round"/>
<path d="M147 63V49C147 45.287 145.525 41.726 142.899 39.1005C140.274 36.475 136.713 35 133 35H91C87.287 35 83.726 36.475 81.1005 39.1005C78.475 41.726 77 45.287 77 49V63" stroke="black" stroke-opacity="0.1" stroke-width="2" stroke-linecap="round" stroke-linejoin="round"/>
<path d="M196.007 110.521C170.477 125.291 141.494 133.047 111.999 133C82.5097 133.047 53.5321 125.294 28.0052 110.528" stroke="black" stroke-opacity="0.1" stroke-width="2" stroke-linecap="round" stroke-linejoin="round"/>
<path d="M101.5 105H122.5" stroke="black" stroke-opacity="0.1" stroke-width="2" stroke-linecap="round" stroke-linejoin="round"/>
</svg>
