<svg width="60" height="60" viewBox="0 0 60 60" fill="none" xmlns="http://www.w3.org/2000/svg">
<path d="M30 5.625V54.375" stroke="white" stroke-opacity="0.9" stroke-width="2" stroke-linecap="round" stroke-linejoin="round"/>
<path d="M43.125 20.625C43.125 19.3939 42.8825 18.1748 42.4114 17.0373C41.9402 15.8999 41.2497 14.8664 40.3791 13.9959C39.5086 13.1253 38.4751 12.4348 37.3377 11.9636C36.2002 11.4925 34.9811 11.25 33.75 11.25H25.3125C22.8261 11.25 20.4415 12.2377 18.6834 13.9959C16.9252 15.754 15.9375 18.1386 15.9375 20.625C15.9375 23.1114 16.9252 25.496 18.6834 27.2541C20.4415 29.0123 22.8261 30 25.3125 30H35.625C38.1114 30 40.496 30.9877 42.2541 32.7459C44.0123 34.504 45 36.8886 45 39.375C45 41.8614 44.0123 44.246 42.2541 46.0041C40.496 47.7623 38.1114 48.75 35.625 48.75H24.375C21.8886 48.75 19.504 47.7623 17.7459 46.0041C15.9877 44.246 15 41.8614 15 39.375" stroke="white" stroke-opacity="0.9" stroke-width="2" stroke-linecap="round" stroke-linejoin="round"/>
</svg>
