<svg width="33" height="33" viewBox="0 0 33 33" fill="none" xmlns="http://www.w3.org/2000/svg">
<path fill-rule="evenodd" clip-rule="evenodd" d="M0 2.00586L2 0.00585938L8.162 4.40586C8.42149 4.59109 8.63293 4.83568 8.7787 5.11922C8.92448 5.40276 9.00035 5.71704 9 6.03586V6.17586C8.99979 6.43882 9.05144 6.69924 9.152 6.94221C9.25255 7.18519 9.40003 7.40595 9.586 7.59186L21 19.0059L22.828 18.3959C23.1803 18.2786 23.5584 18.2618 23.9197 18.3473C24.2811 18.4328 24.6115 18.6172 24.874 18.8799L31.586 25.5919C31.9609 25.9669 32.1716 26.4755 32.1716 27.0059C32.1716 27.5362 31.9609 28.0448 31.586 28.4199L28.414 31.5919C28.0389 31.9668 27.5303 32.1774 27 32.1774C26.4697 32.1774 25.9611 31.9668 25.586 31.5919L18.874 24.8799C18.6113 24.6174 18.4269 24.2869 18.3415 23.9256C18.256 23.5642 18.2728 23.1862 18.39 22.8339L19 21.0059L7.586 9.59186C7.21101 9.21676 6.70239 9.00597 6.172 9.00586H6.03C5.71152 9.00589 5.39764 8.92986 5.11447 8.78411C4.8313 8.63835 4.58704 8.42707 4.402 8.16786L0 2.00586ZM22.708 21.2979C22.5202 21.1101 22.2656 21.0046 22 21.0046C21.7344 21.0046 21.4798 21.1101 21.292 21.2979C21.1042 21.4856 20.9987 21.7403 20.9987 22.0059C20.9987 22.2714 21.1042 22.5261 21.292 22.7139L27.292 28.7139C27.4798 28.9016 27.7344 29.0071 28 29.0071C28.2656 29.0071 28.5202 28.9016 28.708 28.7139C28.8958 28.5261 29.0013 28.2714 29.0013 28.0059C29.0013 27.7403 28.8958 27.4856 28.708 27.2979L22.708 21.2979Z" fill="#015577"/>
<path fill-rule="evenodd" clip-rule="evenodd" d="M31.7941 4.4521C32.0654 5.47016 32.0642 6.54169 31.7905 7.55911C31.5167 8.57653 30.9802 9.50405 30.2347 10.2485C29.4892 10.993 28.5609 11.5283 27.5431 11.8007C26.5253 12.073 25.4538 12.0728 24.4361 11.8001L11.7541 24.3061C12.1321 25.5853 12.073 26.954 11.5862 28.1959C11.0993 29.4378 10.2126 30.4821 9.06598 31.1637C7.91938 31.8453 6.57834 32.1254 5.25477 31.9597C3.9312 31.7941 2.70058 31.192 1.75737 30.2488C0.814159 29.3056 0.21215 28.075 0.0464706 26.7514C-0.119208 25.4279 0.160891 24.0868 0.842506 22.9402C1.52412 21.7936 2.56838 20.9069 3.81028 20.42C5.05217 19.9332 6.42088 19.8741 7.70011 20.2521L20.2041 7.5701C19.928 6.5516 19.9253 5.47829 20.1964 4.45844C20.4676 3.4386 21.0029 2.5083 21.7484 1.7614C22.4938 1.0145 23.4231 0.477425 24.4424 0.204358C25.4618 -0.0687088 26.5351 -0.068108 27.5541 0.2061L23.2701 4.4901L23.9981 8.0061L27.5121 8.7341L31.7941 4.4521ZM5.05411 22.4901L6.00011 22.0061L6.94211 22.4901L8.00011 22.5421L8.57411 23.4321L9.46411 24.0061L9.51611 25.0641L9.99811 26.0061L9.51411 26.9481L9.46211 28.0061L8.57211 28.5801L7.99811 29.4701L6.94011 29.5221L5.99811 30.0061L5.05611 29.5221L3.99811 29.4701L3.42411 28.5801L2.53411 28.0061L2.48211 26.9481L1.99811 26.0061L2.48211 25.0641L2.53411 24.0061L3.42411 23.4321L3.99811 22.5421L5.05611 22.4901H5.05411Z" fill="#015577"/>
</svg>
