<svg width="37" height="32" viewBox="0 0 37 32" fill="none" xmlns="http://www.w3.org/2000/svg">
<path fill-rule="evenodd" clip-rule="evenodd" d="M11.2088 2C11.0401 2.00021 10.8737 2.03412 10.7217 2.0992C10.5698 2.16428 10.4362 2.25888 10.331 2.376L3.46603 10H13.5046C13.8031 10 14.0893 10.1054 14.3004 10.2929C14.5114 10.4804 14.63 10.7348 14.63 11C14.63 11.7956 14.9857 12.5587 15.6189 13.1213C16.252 13.6839 17.1108 14 18.0062 14C18.9016 14 19.7604 13.6839 20.3936 13.1213C21.0267 12.5587 21.3824 11.7956 21.3824 11C21.3824 10.7348 21.501 10.4804 21.7121 10.2929C21.9231 10.1054 22.2094 10 22.5078 10H32.5464L25.6815 2.376C25.5762 2.25888 25.4427 2.16428 25.2907 2.0992C25.1388 2.03412 24.9723 2.00021 24.8037 2H11.2088ZM8.57535 1.126C8.89134 0.775006 9.29204 0.49159 9.74786 0.296693C10.2037 0.101796 10.703 0.000400858 11.2088 0L24.8037 0C25.3095 0.000400858 25.8088 0.101796 26.2646 0.296693C26.7204 0.49159 27.1211 0.775006 27.4371 1.126L35.7651 10.376C35.859 10.4802 35.9285 10.6001 35.9695 10.7286C36.0105 10.857 36.0221 10.9915 36.0037 11.124L35.1258 17.372C35.0238 18.0978 34.6268 18.7654 34.0096 19.2494C33.3924 19.7333 32.5975 20.0003 31.7744 20H4.23806C3.41491 20.0003 2.62001 19.7333 2.00282 19.2494C1.38563 18.7654 0.988678 18.0978 0.886608 17.372L0.00879468 11.124C-0.00965349 10.9915 0.00195318 10.857 0.04293 10.7286C0.0839067 10.6001 0.153424 10.4802 0.24738 10.376L8.57535 1.126ZM0.281142 22.34C0.386603 22.2333 0.51642 22.1478 0.661954 22.0892C0.807488 22.0306 0.965403 22.0002 1.12519 22H13.5046C13.8031 22 14.0893 22.1054 14.3004 22.2929C14.5114 22.4804 14.63 22.7348 14.63 23C14.63 23.7956 14.9857 24.5587 15.6189 25.1213C16.252 25.6839 17.1108 26 18.0062 26C18.9016 26 19.7604 25.6839 20.3936 25.1213C21.0267 24.5587 21.3824 23.7956 21.3824 23C21.3824 22.7348 21.501 22.4804 21.7121 22.2929C21.9231 22.1054 22.2094 22 22.5078 22H34.8873C35.0468 22 35.2045 22.0302 35.3499 22.0885C35.4953 22.1469 35.6251 22.232 35.7307 22.3383C35.8363 22.4446 35.9152 22.5696 35.9623 22.7051C36.0093 22.8405 36.0234 22.9833 36.0037 23.124L35.1258 29.372C35.0238 30.0978 34.6268 30.7654 34.0096 31.2494C33.3924 31.7333 32.5975 32.0003 31.7744 32H4.23806C3.41491 32.0003 2.62001 31.7333 2.00282 31.2494C1.38563 30.7654 0.988678 30.0978 0.886608 29.372L0.00879468 23.124C-0.0111153 22.9833 0.00287104 22.8405 0.0498257 22.705C0.0967803 22.5695 0.17563 22.4444 0.281142 22.338V22.34Z" fill="#015577"/>
</svg>
