<svg width="244" height="244" viewBox="0 0 244 244" fill="none" xmlns="http://www.w3.org/2000/svg">
<path d="M68.2275 137.25L30.5001 167.75V45.75C30.5001 43.7277 31.3034 41.7883 32.7334 40.3583C34.1633 38.9283 36.1028 38.125 38.1251 38.125H160.125C162.147 38.125 164.087 38.9283 165.517 40.3583C166.947 41.7883 167.75 43.7277 167.75 45.75V129.625C167.75 131.647 166.947 133.587 165.517 135.017C164.087 136.447 162.147 137.25 160.125 137.25H68.2275Z" stroke="black" stroke-opacity="0.1" stroke-width="2" stroke-linecap="round" stroke-linejoin="round"/>
<path d="M76.2501 137.25V175.375C76.2501 177.397 77.0534 179.337 78.4834 180.767C79.9133 182.197 81.8528 183 83.8751 183H175.773L213.5 213.5V91.5C213.5 89.4777 212.697 87.5383 211.267 86.1083C209.837 84.6783 207.897 83.875 205.875 83.875H167.75" stroke="black" stroke-opacity="0.1" stroke-width="2" stroke-linecap="round" stroke-linejoin="round"/>
</svg>
