<svg width="30" height="30" viewBox="0 0 30 30" fill="none" xmlns="http://www.w3.org/2000/svg">
<path fill-rule="evenodd" clip-rule="evenodd" d="M1 0C0.734784 0 0.48043 0.105357 0.292893 0.292893C0.105357 0.48043 0 0.734784 0 1C0 1.26522 0.105357 1.51957 0.292893 1.70711C0.48043 1.89464 0.734784 2 1 2H3.22L4.022 5.214L7.018 21.184C7.0609 21.4132 7.18251 21.6201 7.36182 21.7691C7.54113 21.9181 7.76687 21.9998 8 22H10C8.93914 22 7.92172 22.4214 7.17157 23.1716C6.42143 23.9217 6 24.9391 6 26C6 27.0609 6.42143 28.0783 7.17157 28.8284C7.92172 29.5786 8.93914 30 10 30C11.0609 30 12.0783 29.5786 12.8284 28.8284C13.5786 28.0783 14 27.0609 14 26C14 24.9391 13.5786 23.9217 12.8284 23.1716C12.0783 22.4214 11.0609 22 10 22H24C22.9391 22 21.9217 22.4214 21.1716 23.1716C20.4214 23.9217 20 24.9391 20 26C20 27.0609 20.4214 28.0783 21.1716 28.8284C21.9217 29.5786 22.9391 30 24 30C25.0609 30 26.0783 29.5786 26.8284 28.8284C27.5786 28.0783 28 27.0609 28 26C28 24.9391 27.5786 23.9217 26.8284 23.1716C26.0783 22.4214 25.0609 22 24 22H26C26.2331 21.9998 26.4589 21.9181 26.6382 21.7691C26.8175 21.6201 26.9391 21.4132 26.982 21.184L29.982 5.184C30.009 5.03967 30.0039 4.89117 29.9671 4.74904C29.9302 4.6069 29.8625 4.47463 29.7688 4.36161C29.6751 4.24859 29.5576 4.1576 29.4247 4.0951C29.2918 4.03261 29.1468 4.00014 29 4H5.78L4.97 0.758C4.91602 0.541568 4.79122 0.349398 4.61546 0.212049C4.4397 0.0747014 4.22306 6.1623e-05 4 0H1ZM8 26C8 25.4696 8.21072 24.9609 8.58579 24.5858C8.96086 24.2107 9.46957 24 10 24C10.5304 24 11.0391 24.2107 11.4142 24.5858C11.7893 24.9609 12 25.4696 12 26C12 26.5304 11.7893 27.0391 11.4142 27.4142C11.0391 27.7893 10.5304 28 10 28C9.46957 28 8.96086 27.7893 8.58579 27.4142C8.21072 27.0391 8 26.5304 8 26ZM22 26C22 25.4696 22.2107 24.9609 22.5858 24.5858C22.9609 24.2107 23.4696 24 24 24C24.5304 24 25.0391 24.2107 25.4142 24.5858C25.7893 24.9609 26 25.4696 26 26C26 26.5304 25.7893 27.0391 25.4142 27.4142C25.0391 27.7893 24.5304 28 24 28C23.4696 28 22.9609 27.7893 22.5858 27.4142C22.2107 27.0391 22 26.5304 22 26ZM14.708 9.292C14.615 9.19902 14.5046 9.12527 14.3832 9.07495C14.2617 9.02463 14.1315 8.99874 14 8.99874C13.8685 8.99874 13.7383 9.02463 13.6168 9.07495C13.4954 9.12527 13.385 9.19902 13.292 9.292C13.199 9.38498 13.1253 9.49535 13.075 9.61683C13.0246 9.73831 12.9987 9.86851 12.9987 10C12.9987 10.1315 13.0246 10.2617 13.075 10.3832C13.1253 10.5046 13.199 10.615 13.292 10.708L15.586 13L13.292 15.292C13.199 15.385 13.1253 15.4954 13.075 15.6168C13.0246 15.7383 12.9987 15.8685 12.9987 16C12.9987 16.1315 13.0246 16.2617 13.075 16.3832C13.1253 16.5046 13.199 16.615 13.292 16.708C13.385 16.801 13.4954 16.8747 13.6168 16.925C13.7383 16.9754 13.8685 17.0013 14 17.0013C14.1315 17.0013 14.2617 16.9754 14.3832 16.925C14.5046 16.8747 14.615 16.801 14.708 16.708L17 14.414L19.292 16.708C19.4798 16.8958 19.7345 17.0013 20 17.0013C20.2656 17.0013 20.5202 16.8958 20.708 16.708C20.8958 16.5202 21.0013 16.2656 21.0013 16C21.0013 15.7344 20.8958 15.4798 20.708 15.292L18.414 13L20.708 10.708C20.8958 10.5202 21.0013 10.2656 21.0013 10C21.0013 9.73445 20.8958 9.47977 20.708 9.292C20.5202 9.10423 20.2656 8.99874 20 8.99874C19.7345 8.99874 19.4798 9.10423 19.292 9.292L17 11.586L14.708 9.292Z" fill="#015577"/>
</svg>
