<svg width="36" height="27" viewBox="0 0 36 27" fill="none" xmlns="http://www.w3.org/2000/svg">
<path fill-rule="evenodd" clip-rule="evenodd" d="M13.5 3.375C13.5 2.47989 13.8556 1.62145 14.4885 0.988515C15.1214 0.355579 15.9799 0 16.875 0H19.125C20.0201 0 20.8786 0.355579 21.5115 0.988515C22.1444 1.62145 22.5 2.47989 22.5 3.375V5.625C22.5 6.52011 22.1444 7.37855 21.5115 8.01149C20.8786 8.64442 20.0201 9 19.125 9V11.25H31.5C31.7984 11.25 32.0845 11.3685 32.2955 11.5795C32.5065 11.7905 32.625 12.0766 32.625 12.375V14.625C32.625 14.9234 32.5065 15.2095 32.2955 15.4205C32.0845 15.6315 31.7984 15.75 31.5 15.75C31.2016 15.75 30.9155 15.6315 30.7045 15.4205C30.4935 15.2095 30.375 14.9234 30.375 14.625V13.5H19.125V14.625C19.125 14.9234 19.0065 15.2095 18.7955 15.4205C18.5845 15.6315 18.2984 15.75 18 15.75C17.7016 15.75 17.4155 15.6315 17.2045 15.4205C16.9935 15.2095 16.875 14.9234 16.875 14.625V13.5H5.625V14.625C5.625 14.9234 5.50647 15.2095 5.29549 15.4205C5.08452 15.6315 4.79837 15.75 4.5 15.75C4.20163 15.75 3.91548 15.6315 3.7045 15.4205C3.49353 15.2095 3.375 14.9234 3.375 14.625V12.375C3.375 12.0766 3.49353 11.7905 3.7045 11.5795C3.91548 11.3685 4.20163 11.25 4.5 11.25H16.875V9C15.9799 9 15.1214 8.64442 14.4885 8.01149C13.8556 7.37855 13.5 6.52011 13.5 5.625V3.375ZM0 21.375C0 20.4799 0.355579 19.6214 0.988515 18.9885C1.62145 18.3556 2.47989 18 3.375 18H5.625C6.52011 18 7.37855 18.3556 8.01149 18.9885C8.64442 19.6214 9 20.4799 9 21.375V23.625C9 24.5201 8.64442 25.3786 8.01149 26.0115C7.37855 26.6444 6.52011 27 5.625 27H3.375C2.47989 27 1.62145 26.6444 0.988515 26.0115C0.355579 25.3786 0 24.5201 0 23.625L0 21.375ZM13.5 21.375C13.5 20.4799 13.8556 19.6214 14.4885 18.9885C15.1214 18.3556 15.9799 18 16.875 18H19.125C20.0201 18 20.8786 18.3556 21.5115 18.9885C22.1444 19.6214 22.5 20.4799 22.5 21.375V23.625C22.5 24.5201 22.1444 25.3786 21.5115 26.0115C20.8786 26.6444 20.0201 27 19.125 27H16.875C15.9799 27 15.1214 26.6444 14.4885 26.0115C13.8556 25.3786 13.5 24.5201 13.5 23.625V21.375ZM27 21.375C27 20.4799 27.3556 19.6214 27.9885 18.9885C28.6214 18.3556 29.4799 18 30.375 18H32.625C33.5201 18 34.3786 18.3556 35.0115 18.9885C35.6444 19.6214 36 20.4799 36 21.375V23.625C36 24.5201 35.6444 25.3786 35.0115 26.0115C34.3786 26.6444 33.5201 27 32.625 27H30.375C29.4799 27 28.6214 26.6444 27.9885 26.0115C27.3556 25.3786 27 24.5201 27 23.625V21.375Z" fill="#015577"/>
</svg>
