<svg width="18" height="17" viewBox="0 0 18 17" fill="none" xmlns="http://www.w3.org/2000/svg">
<g clip-path="url(#clip0)">
<path fill-rule="evenodd" clip-rule="evenodd" d="M13.2125 9.42249C13.7622 8.30959 14.0775 7.26721 14.0775 6.37316C14.0775 4.99776 13.5312 3.67869 12.5586 2.70614C11.5861 1.73359 10.267 1.18721 8.89159 1.18721C7.51619 1.18721 6.19713 1.73359 5.22457 2.70614C4.25202 3.67869 3.70565 4.99776 3.70565 6.37316C3.70565 7.26721 4.02199 8.30959 4.57066 9.42249C5.11415 10.524 5.85055 11.6213 6.60355 12.6067C7.31785 13.5356 8.08163 14.4254 8.89159 15.2722L9.10732 15.0441C9.83749 14.2659 10.5291 13.4525 11.1796 12.6067C11.9326 11.6213 12.669 10.524 13.2125 9.42249ZM8.89159 16.745C8.89159 16.745 15.1147 10.8476 15.1147 6.37316C15.1147 4.72268 14.4591 3.1398 13.292 1.97274C12.1249 0.805674 10.5421 0.150024 8.89159 0.150024C7.24111 0.150024 5.65823 0.805674 4.49117 1.97274C3.32411 3.1398 2.66846 4.72268 2.66846 6.37316C2.66846 10.8476 8.89159 16.745 8.89159 16.745Z" fill="black"/>
<path fill-rule="evenodd" clip-rule="evenodd" d="M8.89184 8.44754C9.442 8.44754 9.96962 8.22899 10.3586 7.83997C10.7477 7.45095 10.9662 6.92332 10.9662 6.37316C10.9662 5.823 10.7477 5.29538 10.3586 4.90636C9.96962 4.51734 9.442 4.29879 8.89184 4.29879C8.34168 4.29879 7.81405 4.51734 7.42503 4.90636C7.03601 5.29538 6.81746 5.823 6.81746 6.37316C6.81746 6.92332 7.03601 7.45095 7.42503 7.83997C7.81405 8.22899 8.34168 8.44754 8.89184 8.44754ZM8.89184 9.48473C9.71708 9.48473 10.5085 9.1569 11.092 8.57337C11.6756 7.98984 12.0034 7.1984 12.0034 6.37316C12.0034 5.54792 11.6756 4.75649 11.092 4.17295C10.5085 3.58942 9.71708 3.2616 8.89184 3.2616C8.0666 3.2616 7.27516 3.58942 6.69163 4.17295C6.1081 4.75649 5.78027 5.54792 5.78027 6.37316C5.78027 7.1984 6.1081 7.98984 6.69163 8.57337C7.27516 9.1569 8.0666 9.48473 8.89184 9.48473Z" fill="black"/>
</g>
<defs>
<clipPath id="clip0">
<rect width="16.595" height="16.595" fill="white" transform="translate(0.594238 0.150024)"/>
</clipPath>
</defs>
</svg>
