<svg width="27" height="36" viewBox="0 0 27 36" fill="none" xmlns="http://www.w3.org/2000/svg">
<path fill-rule="evenodd" clip-rule="evenodd" d="M0 5.625C0 4.13316 0.592632 2.70242 1.64752 1.64752C2.70242 0.592632 4.13316 0 5.625 0L21.375 0C22.8668 0 24.2976 0.592632 25.3525 1.64752C26.4074 2.70242 27 4.13316 27 5.625V31.5C27 32.6935 26.5259 33.8381 25.682 34.682C24.8381 35.5259 23.6935 36 22.5 36H4.5C3.30653 36 2.16193 35.5259 1.31802 34.682C0.474106 33.8381 0 32.6935 0 31.5V5.625ZM5.625 2.25C4.72989 2.25 3.87145 2.60558 3.23851 3.23851C2.60558 3.87145 2.25 4.72989 2.25 5.625V29.9138C2.78976 29.482 3.37527 29.1108 3.996 28.8068C5.868 27.8708 8.85825 27 13.5 27C18.1417 27 21.132 27.8708 23.004 28.8068C23.6247 29.1108 24.2102 29.482 24.75 29.9138V5.625C24.75 4.72989 24.3944 3.87145 23.7615 3.23851C23.1286 2.60558 22.2701 2.25 21.375 2.25H5.625Z" fill="#015577"/>
<path fill-rule="evenodd" clip-rule="evenodd" d="M13.5 24.75C15.2902 24.75 17.0071 24.0388 18.273 22.773C19.5388 21.5071 20.25 19.7902 20.25 18C20.25 16.2098 19.5388 14.4929 18.273 13.227C17.0071 11.9612 15.2902 11.25 13.5 11.25C11.7098 11.25 9.9929 11.9612 8.72703 13.227C7.46116 14.4929 6.75 16.2098 6.75 18C6.75 19.7902 7.46116 21.5071 8.72703 22.773C9.9929 24.0388 11.7098 24.75 13.5 24.75V24.75ZM9 5.625C9 5.32663 9.11853 5.04048 9.32951 4.82951C9.54048 4.61853 9.82663 4.5 10.125 4.5H16.875C17.1734 4.5 17.4595 4.61853 17.6705 4.82951C17.8815 5.04048 18 5.32663 18 5.625C18 5.92337 17.8815 6.20952 17.6705 6.42049C17.4595 6.63147 17.1734 6.75 16.875 6.75H10.125C9.82663 6.75 9.54048 6.63147 9.32951 6.42049C9.11853 6.20952 9 5.92337 9 5.625Z" fill="#015577"/>
</svg>
