<svg width="44" height="44" viewBox="0 0 44 44" fill="none" xmlns="http://www.w3.org/2000/svg">
<path d="M19.7997 10.9294C19.7997 12.529 19.5266 13.9726 18.9803 15.2601C18.4536 16.5476 17.7416 17.6498 16.8442 18.5666C15.9469 19.464 14.9032 20.1565 13.7133 20.6442C12.5233 21.1319 11.2845 21.3758 9.99703 21.3758C8.59248 21.3758 7.29521 21.1319 6.10524 20.6442C4.91527 20.1565 3.88136 19.464 3.00352 18.5666C2.14518 17.6498 1.47216 16.5476 0.984469 15.2601C0.496776 13.9726 0.25293 12.529 0.25293 10.9294C0.25293 9.29073 0.496776 7.80814 0.984469 6.48162C1.47216 5.15509 2.14518 4.0334 3.00352 3.11654C3.88136 2.19967 4.91527 1.4974 6.10524 1.0097C7.29521 0.502502 8.59248 0.248901 9.99703 0.248901C11.4016 0.248901 12.6989 0.502502 13.8888 1.0097C15.0983 1.4974 16.142 2.19967 17.0198 3.11654C17.8977 4.0334 18.5804 5.15509 19.0681 6.48162C19.5558 7.80814 19.7997 9.29073 19.7997 10.9294ZM14.24 10.9294C14.24 9.79793 14.1229 8.8518 13.8888 8.091C13.6742 7.3302 13.3719 6.71571 12.9817 6.24752C12.6111 5.77934 12.1624 5.44771 11.6357 5.25263C11.1285 5.03804 10.5823 4.93075 9.99703 4.93075C9.4118 4.93075 8.86559 5.03804 8.35838 5.25263C7.85118 5.44771 7.41226 5.77934 7.04161 6.24752C6.69047 6.71571 6.40761 7.3302 6.19303 8.091C5.97844 8.8518 5.87115 9.79793 5.87115 10.9294C5.87115 12.0218 5.97844 12.9387 6.19303 13.68C6.40761 14.4017 6.69047 14.987 7.04161 15.4357C7.41226 15.8843 7.85118 16.2062 8.35838 16.4013C8.86559 16.5964 9.4118 16.6939 9.99703 16.6939C10.5823 16.6939 11.1285 16.5964 11.6357 16.4013C12.1624 16.2062 12.6111 15.8843 12.9817 15.4357C13.3719 14.987 13.6742 14.4017 13.8888 13.68C14.1229 12.9387 14.24 12.0218 14.24 10.9294ZM33.8745 1.82903C34.1281 1.53641 34.4207 1.27306 34.7523 1.03897C35.1035 0.804871 35.5912 0.687824 36.2154 0.687824H41.4825L10.0556 41.9174C9.80196 42.2295 9.49959 42.4929 9.14845 42.7074C8.79731 42.9025 8.36814 43.0001 7.86094 43.0001H2.47681L33.8745 1.82903ZM43.7064 33.0511C43.7064 34.6508 43.4333 36.0943 42.887 37.3818C42.3603 38.6693 41.6483 39.7715 40.7509 40.6884C39.8536 41.5857 38.8099 42.288 37.62 42.7952C36.43 43.2829 35.1912 43.5268 33.9037 43.5268C32.4992 43.5268 31.2019 43.2829 30.0119 42.7952C28.822 42.288 27.7881 41.5857 26.9102 40.6884C26.0519 39.7715 25.3789 38.6693 24.8912 37.3818C24.4035 36.0943 24.1596 34.6508 24.1596 33.0511C24.1596 31.4125 24.4035 29.9299 24.8912 28.6034C25.3789 27.2768 26.0519 26.1551 26.9102 25.2383C27.7881 24.3214 28.822 23.6191 30.0119 23.1315C31.2019 22.6242 32.4992 22.3706 33.9037 22.3706C35.3083 22.3706 36.6056 22.6242 37.7955 23.1315C39.005 23.6191 40.0389 24.3214 40.8973 25.2383C41.7751 26.1551 42.4579 27.2768 42.9456 28.6034C43.4528 29.9299 43.7064 31.4125 43.7064 33.0511ZM38.1174 33.0511C38.1174 31.9197 38.0101 30.9735 37.7955 30.2127C37.5809 29.4519 37.2786 28.8375 36.8884 28.3693C36.5178 27.9011 36.0691 27.5695 35.5424 27.3744C35.0352 27.1598 34.489 27.0525 33.9037 27.0525C33.3185 27.0525 32.7723 27.1598 32.2651 27.3744C31.7579 27.5695 31.319 27.9011 30.9483 28.3693C30.5777 28.8375 30.2851 29.4519 30.0705 30.2127C29.8754 30.9735 29.7779 31.9197 29.7779 33.0511C29.7779 34.1436 29.8754 35.0604 30.0705 35.8017C30.2851 36.543 30.5777 37.138 30.9483 37.5867C31.319 38.0353 31.7579 38.3572 32.2651 38.5523C32.7723 38.7474 33.3185 38.8449 33.9037 38.8449C34.489 38.8449 35.0352 38.7474 35.5424 38.5523C36.0691 38.3572 36.5178 38.0353 36.8884 37.5867C37.2786 37.138 37.5809 36.543 37.7955 35.8017C38.0101 35.0604 38.1174 34.1436 38.1174 33.0511Z" fill="black" fill-opacity="0.03"/>
</svg>
