<svg width="12" height="12" viewBox="0 0 12 12" fill="none" xmlns="http://www.w3.org/2000/svg">
<path fill-rule="evenodd" clip-rule="evenodd" d="M7.83054 7.83166C7.9002 7.76193 7.98291 7.70661 8.07396 7.66886C8.16501 7.63112 8.26261 7.61169 8.36117 7.61169C8.45973 7.61169 8.55732 7.63112 8.64837 7.66886C8.73942 7.70661 8.82214 7.76193 8.89179 7.83166L11.7793 10.7192C11.92 10.8598 11.9991 11.0506 11.9992 11.2495C11.9993 11.4485 11.9203 11.6393 11.7797 11.78C11.639 11.9208 11.4483 11.9999 11.2493 11.9999C11.0504 12 10.8595 11.921 10.7188 11.7804L7.83129 8.89291C7.76156 8.82325 7.70624 8.74054 7.6685 8.64949C7.63076 8.55844 7.61133 8.46085 7.61133 8.36228C7.61133 8.26372 7.63076 8.16613 7.6685 8.07508C7.70624 7.98403 7.76156 7.90131 7.83129 7.83166H7.83054Z" fill="white"/>
<path fill-rule="evenodd" clip-rule="evenodd" d="M4.875 9C5.4167 9 5.9531 8.8933 6.45357 8.686C6.95404 8.4787 7.40877 8.17486 7.79182 7.79182C8.17486 7.40877 8.4787 6.95404 8.686 6.45357C8.8933 5.9531 9 5.4167 9 4.875C9 4.3333 8.8933 3.7969 8.686 3.29643C8.4787 2.79596 8.17486 2.34123 7.79182 1.95818C7.40877 1.57514 6.95404 1.2713 6.45357 1.064C5.9531 0.856696 5.4167 0.75 4.875 0.75C3.78098 0.75 2.73177 1.1846 1.95818 1.95818C1.1846 2.73177 0.75 3.78098 0.75 4.875C0.75 5.96902 1.1846 7.01823 1.95818 7.79182C2.73177 8.5654 3.78098 9 4.875 9ZM9.75 4.875C9.75 6.16793 9.23639 7.40791 8.32215 8.32215C7.40791 9.23639 6.16793 9.75 4.875 9.75C3.58207 9.75 2.34209 9.23639 1.42785 8.32215C0.513615 7.40791 0 6.16793 0 4.875C0 3.58207 0.513615 2.34209 1.42785 1.42785C2.34209 0.513615 3.58207 0 4.875 0C6.16793 0 7.40791 0.513615 8.32215 1.42785C9.23639 2.34209 9.75 3.58207 9.75 4.875Z" fill="white"/>
</svg>
