<svg width="60" height="60" viewBox="0 0 60 60" fill="none" xmlns="http://www.w3.org/2000/svg">
<path d="M3.75 50.6211H56.25" stroke="white" stroke-width="2" stroke-linecap="round" stroke-linejoin="round"/>
<path d="M33.7486 50.6211V9.37109C33.7486 8.87381 33.5511 8.3969 33.1995 8.04527C32.8478 7.69364 32.3709 7.49609 31.8736 7.49609H9.37363C8.87635 7.49609 8.39943 7.69364 8.0478 8.04527C7.69617 8.3969 7.49863 8.87381 7.49863 9.37109V50.6211" stroke="white" stroke-width="2" stroke-linecap="round" stroke-linejoin="round"/>
<path d="M52.4986 50.6211V24.3711C52.4986 23.8738 52.3011 23.3969 51.9495 23.0453C51.5978 22.6936 51.1209 22.4961 50.6236 22.4961H33.7486" stroke="white" stroke-width="2" stroke-linecap="round" stroke-linejoin="round"/>
<path d="M14.9986 16.8711H22.4986" stroke="white" stroke-width="2" stroke-linecap="round" stroke-linejoin="round"/>
<path d="M18.7486 31.8711H26.2486" stroke="white" stroke-width="2" stroke-linecap="round" stroke-linejoin="round"/>
<path d="M14.9986 41.2461H22.4986" stroke="white" stroke-width="2" stroke-linecap="round" stroke-linejoin="round"/>
<path d="M41.2486 41.2461H44.9986" stroke="white" stroke-width="2" stroke-linecap="round" stroke-linejoin="round"/>
<path d="M41.2486 31.8711H44.9986" stroke="white" stroke-width="2" stroke-linecap="round" stroke-linejoin="round"/>
</svg>
