<svg width="19" height="20" viewBox="0 0 19 20" fill="none" xmlns="http://www.w3.org/2000/svg">
<path d="M3.53857 10.9452V15.8325C3.53857 15.9841 3.59879 16.1294 3.70597 16.2366C3.81315 16.3438 3.95851 16.404 4.11009 16.404H14.3974C14.5489 16.404 14.6943 16.3438 14.8015 16.2366C14.9087 16.1294 14.9689 15.9841 14.9689 15.8325V10.9453" stroke="black" stroke-width="0.914424" stroke-linecap="round" stroke-linejoin="round"/>
<path d="M3.96963 3.83069H14.5377C14.6619 3.83069 14.7828 3.87115 14.8819 3.94594C14.9811 4.02073 15.0531 4.12578 15.0873 4.2452L16.1119 7.83129H2.39551L3.42011 4.2452C3.45423 4.12578 3.52632 4.02073 3.62547 3.94594C3.72462 3.87115 3.84544 3.83069 3.96963 3.83069Z" stroke="black" stroke-width="0.914424" stroke-linecap="round" stroke-linejoin="round"/>
<path d="M6.96763 7.8313V8.97433C6.96763 9.58063 6.72678 10.1621 6.29806 10.5908C5.86934 11.0195 5.28787 11.2604 4.68157 11.2604C4.07527 11.2604 3.4938 11.0195 3.06508 10.5908C2.63636 10.1621 2.39551 9.58063 2.39551 8.97433V7.8313" stroke="black" stroke-width="0.914424" stroke-linecap="round" stroke-linejoin="round"/>
<path d="M11.5399 7.8313V8.97433C11.5399 9.58063 11.299 10.1621 10.8703 10.5908C10.4416 11.0195 9.86013 11.2604 9.25383 11.2604C8.64753 11.2604 8.06606 11.0195 7.63734 10.5908C7.20863 10.1621 6.96777 9.58063 6.96777 8.97433V7.8313" stroke="black" stroke-width="0.914424" stroke-linecap="round" stroke-linejoin="round"/>
<path d="M16.1117 7.8313V8.97433C16.1117 9.58063 15.8708 10.1621 15.4421 10.5908C15.0134 11.0195 14.4319 11.2604 13.8256 11.2604C13.2193 11.2604 12.6378 11.0195 12.2091 10.5908C11.7804 10.1621 11.5396 9.58063 11.5396 8.97433V7.8313" stroke="black" stroke-width="0.914424" stroke-linecap="round" stroke-linejoin="round"/>
</svg>
