<svg width="36" height="27" viewBox="0 0 36 27" fill="none" xmlns="http://www.w3.org/2000/svg">
<path fill-rule="evenodd" clip-rule="evenodd" d="M15.75 27C15.75 27 13.5 27 13.5 24.75C13.5 22.5 15.75 15.75 24.75 15.75C33.75 15.75 36 22.5 36 24.75C36 27 33.75 27 33.75 27H15.75ZM24.75 13.5C26.5402 13.5 28.2571 12.7888 29.523 11.523C30.7888 10.2571 31.5 8.54021 31.5 6.75C31.5 4.95979 30.7888 3.2429 29.523 1.97703C28.2571 0.711159 26.5402 0 24.75 0C22.9598 0 21.2429 0.711159 19.977 1.97703C18.7112 3.2429 18 4.95979 18 6.75C18 8.54021 18.7112 10.2571 19.977 11.523C21.2429 12.7888 22.9598 13.5 24.75 13.5V13.5ZM11.736 27C11.4024 26.2976 11.2361 25.5275 11.25 24.75C11.25 21.7012 12.78 18.5625 15.606 16.38C14.1955 15.9454 12.7259 15.7328 11.25 15.75C2.25 15.75 0 22.5 0 24.75C0 27 2.25 27 2.25 27H11.736ZM10.125 13.5C11.6168 13.5 13.0476 12.9074 14.1025 11.8525C15.1574 10.7976 15.75 9.36684 15.75 7.875C15.75 6.38316 15.1574 4.95242 14.1025 3.89752C13.0476 2.84263 11.6168 2.25 10.125 2.25C8.63316 2.25 7.20242 2.84263 6.14752 3.89752C5.09263 4.95242 4.5 6.38316 4.5 7.875C4.5 9.36684 5.09263 10.7976 6.14752 11.8525C7.20242 12.9074 8.63316 13.5 10.125 13.5V13.5Z" fill="#015577"/>
</svg>
