<svg width="284" height="284" viewBox="0 0 284 284" fill="none" xmlns="http://www.w3.org/2000/svg">
<path d="M168.625 124.25H213" stroke="black" stroke-opacity="0.1" stroke-width="2" stroke-linecap="round" stroke-linejoin="round"/>
<path d="M168.625 159.75H213" stroke="black" stroke-opacity="0.1" stroke-width="2" stroke-linecap="round" stroke-linejoin="round"/>
<path d="M102.174 159.75C116.879 159.75 128.799 147.83 128.799 133.125C128.799 118.42 116.879 106.5 102.174 106.5C87.4696 106.5 75.5491 118.42 75.5491 133.125C75.5491 147.83 87.4696 159.75 102.174 159.75Z" stroke="black" stroke-opacity="0.1" stroke-width="2" stroke-linecap="round" stroke-linejoin="round"/>
<path d="M67.7923 186.374C69.762 178.754 74.2077 172.004 80.4307 167.185C86.6538 162.365 94.3016 159.75 102.172 159.75C110.043 159.75 117.691 162.364 123.915 167.183C130.138 172.002 134.584 178.752 136.555 186.372" stroke="black" stroke-opacity="0.1" stroke-width="2" stroke-linecap="round" stroke-linejoin="round"/>
<path d="M239.625 53.25H44.375C39.4735 53.25 35.5 57.2235 35.5 62.125V221.875C35.5 226.777 39.4735 230.75 44.375 230.75H239.625C244.527 230.75 248.5 226.777 248.5 221.875V62.125C248.5 57.2235 244.527 53.25 239.625 53.25Z" stroke="black" stroke-opacity="0.1" stroke-width="2" stroke-linecap="round" stroke-linejoin="round"/>
</svg>
