<svg width="15" height="15" viewBox="0 0 15 15" fill="none" xmlns="http://www.w3.org/2000/svg">
<path d="M7.50003 13.125C10.6066 13.125 13.125 10.6066 13.125 7.5C13.125 4.3934 10.6066 1.875 7.50003 1.875C4.39343 1.875 1.87503 4.3934 1.87503 7.5C1.87503 10.6066 4.39343 13.125 7.50003 13.125Z" stroke="black" stroke-width="0.705357" stroke-linecap="round" stroke-linejoin="round"/>
<path d="M12.5487 9.98267L9.36787 8.02632C9.31212 7.99203 9.24979 7.96979 9.18492 7.96105L7.84789 7.78081C7.74749 7.76728 7.64541 7.78664 7.55693 7.83598C7.46846 7.88533 7.39835 7.96202 7.35711 8.05455L6.55445 9.85562C6.51712 9.93938 6.50518 10.0322 6.52011 10.1227C6.53503 10.2132 6.57616 10.2973 6.63841 10.3646L7.73997 11.5561C7.78991 11.6101 7.82644 11.6752 7.84659 11.7459C7.86675 11.8166 7.86997 11.8911 7.856 11.9634L7.63162 13.1233" stroke="black" stroke-width="0.705357" stroke-linecap="round" stroke-linejoin="round"/>
<path d="M3.80578 3.25806L3.28171 4.4973C3.23498 4.60779 3.2324 4.732 3.27449 4.84434L3.94778 6.64131C3.97535 6.7149 4.02098 6.78037 4.08047 6.83171C4.13996 6.88305 4.21141 6.91861 4.28823 6.93513L5.54389 7.205C5.61357 7.21998 5.67891 7.25064 5.73495 7.29467C5.791 7.33869 5.83626 7.39491 5.86731 7.45906L6.0903 7.91972C6.12867 7.99899 6.18861 8.06586 6.26323 8.11264C6.33785 8.15942 6.42414 8.18424 6.51222 8.18424H7.29928" stroke="black" stroke-width="0.705357" stroke-linecap="round" stroke-linejoin="round"/>
<path d="M8.93313 2.05933L9.48002 3.03892C9.53172 3.13152 9.55049 3.23893 9.53326 3.34358C9.51602 3.44823 9.46381 3.54394 9.38515 3.61508L7.80834 5.04111C7.78158 5.06531 7.75211 5.08634 7.72053 5.10378L7.00324 5.4999C6.93386 5.53821 6.85589 5.55831 6.77663 5.55831H5.52593C5.4337 5.55831 5.34351 5.58552 5.26667 5.63653C5.18983 5.68754 5.12975 5.76009 5.09394 5.84509L4.60602 7.00339" stroke="black" stroke-width="0.705357" stroke-linecap="round" stroke-linejoin="round"/>
</svg>
